<svg xmlns="http://www.w3.org/2000/svg" viewBox="0 0 100 100">
  <defs>
    <linearGradient id="catGradient" x1="0%" y1="0%" x2="100%" y2="100%">
      <stop offset="0%" style="stop-color:#667eea;stop-opacity:1" />
      <stop offset="100%" style="stop-color:#764ba2;stop-opacity:1" />
    </linearGradient>
  </defs>
  <!-- Cat face -->
  <circle cx="50" cy="50" r="35" fill="url(#catGradient)"/>
  <!-- Left ear -->
  <path d="M 30 25 L 20 10 L 35 20 Z" fill="url(#catGradient)"/>
  <!-- Right ear -->
  <path d="M 70 25 L 80 10 L 65 20 Z" fill="url(#catGradient)"/>
  <!-- Eyes -->
  <ellipse cx="40" cy="45" rx="3" ry="5" fill="white"/>
  <ellipse cx="60" cy="45" rx="3" ry="5" fill="white"/>
  <!-- Pupils -->
  <circle cx="40" cy="46" r="2" fill="#333"/>
  <circle cx="60" cy="46" r="2" fill="#333"/>
  <!-- Nose -->
  <path d="M 50 52 L 48 55 L 52 55 Z" fill="#ff6b9d"/>
  <!-- Mouth -->
  <path d="M 50 55 Q 45 58 42 56 M 50 55 Q 55 58 58 56" stroke="white" stroke-width="1.5" fill="none" stroke-linecap="round"/>
  <!-- Whiskers -->
  <line x1="25" y1="48" x2="35" y2="47" stroke="white" stroke-width="1"/>
  <line x1="25" y1="52" x2="35" y2="52" stroke="white" stroke-width="1"/>
  <line x1="65" y1="47" x2="75" y2="48" stroke="white" stroke-width="1"/>
  <line x1="65" y1="52" x2="75" y2="52" stroke="white" stroke-width="1"/>
</svg>

